<svg width="21" height="18" viewBox="0 0 21 18" fill="none" xmlns="http://www.w3.org/2000/svg">
<path fill-rule="evenodd" clip-rule="evenodd" d="M19.9831 8.3488L12.3031 0.296161C11.945 -0.0702057 11.3637 -0.112761 10.9456 0.259157C10.5725 0.590366 10.5631 1.23798 10.9081 1.59878L17.0732 8.05273H1.41313C0.882487 8.05273 0.453125 8.47646 0.453125 9.0001C0.453125 9.52375 0.882501 9.94747 1.41313 9.94747H17.0732L10.9081 16.4014C10.5631 16.7622 10.5875 17.3932 10.9456 17.7411C11.3243 18.1074 11.9506 18.076 12.3031 17.704L19.9831 9.65141C20.2081 9.43307 20.2494 9.22213 20.2531 9.00009C20.2531 8.78178 20.1181 8.48944 19.9831 8.3488Z" fill="url(#paint0_linear_1_103)"/>
<defs>
<linearGradient id="paint0_linear_1_103" x1="0.453125" y1="1.56198" x2="18.6982" y2="18.1484" gradientUnits="userSpaceOnUse">
<stop stop-color="#665DCD"/>
<stop offset="0.447624" stop-color="#5FA4E6"/>
<stop offset="1" stop-color="#D2AB67"/>
</linearGradient>
</defs>
</svg>
